<?xml version="1.0" encoding="UTF-8"?>
<!DOCTYPE svg PUBLIC "-//W3C//DTD SVG 1.1//EN" "http://www.w3.org/Graphics/SVG/1.1/DTD/svg11.dtd">
<svg xmlns="http://www.w3.org/2000/svg" version="1.1" width="1600px" height="1600px" style="shape-rendering:geometricPrecision; text-rendering:geometricPrecision; image-rendering:optimizeQuality; fill-rule:evenodd; clip-rule:evenodd" xmlns:xlink="http://www.w3.org/1999/xlink">
<g><path style="opacity:1" fill="#25d366" d="M 754.5,-0.5 C 784.5,-0.5 814.5,-0.5 844.5,-0.5C 1070.03,16.8551 1257.2,109.188 1406,276.5C 1521.96,414.201 1586.46,573.535 1599.5,754.5C 1599.5,784.167 1599.5,813.833 1599.5,843.5C 1581.15,1081.41 1480.81,1275.58 1298.5,1426C 1165.34,1529.69 1014.01,1587.53 844.5,1599.5C 814.5,1599.5 784.5,1599.5 754.5,1599.5C 528.959,1582.14 341.793,1489.81 193,1322.5C 77.0448,1184.8 12.5448,1025.47 -0.5,844.5C -0.5,814.5 -0.5,784.5 -0.5,754.5C 16.3055,533.082 105.972,348.249 268.5,200C 407.498,79.3383 569.498,12.505 754.5,-0.5 Z"/></g>
<g><path style="opacity:1" fill="#fefefe" d="M 802.5,295.5 C 935.048,292.997 1050.71,335.164 1149.5,422C 1234.97,500.592 1287.47,597.426 1307,712.5C 1325.58,846.5 1296.25,968.833 1219,1079.5C 1134.35,1193.1 1021.52,1259.94 880.5,1280C 775.866,1291.73 677.366,1272.9 585,1223.5C 493.968,1252.19 402.968,1280.86 312,1309.5C 312.053,1307.21 312.386,1304.88 313,1302.5C 342.346,1217.29 371.18,1131.96 399.5,1046.5C 332.713,933.201 312.546,811.868 339,682.5C 378.514,524.322 471.68,409.822 618.5,339C 677.224,313.027 738.557,298.527 802.5,295.5 Z"/></g>
<g><path style="opacity:1" fill="#25d366" d="M 794.5,375.5 C 946.403,370.547 1067.9,428.214 1159,548.5C 1231.29,653.659 1252.63,768.659 1223,893.5C 1186.15,1022.68 1106.65,1115.18 984.5,1171C 898.801,1206.03 810.801,1213.03 720.5,1192C 678.405,1180.94 639.072,1163.94 602.5,1141C 600.232,1139.45 597.732,1138.61 595,1138.5C 541.881,1154.86 488.881,1171.53 436,1188.5C 437.268,1183.25 438.601,1177.92 440,1172.5C 455.574,1126.44 470.741,1080.28 485.5,1034C 475.233,1017.31 465.066,1000.48 455,983.5C 397.057,866.772 392.057,747.772 440,626.5C 496.327,503.176 589.827,423.343 720.5,387C 745.077,381.782 769.744,377.949 794.5,375.5 Z"/></g>
<g><path style="opacity:1" fill="#fefefe" d="M 636.5,580.5 C 646.839,580.334 657.172,580.5 667.5,581C 672.774,581.314 677.774,582.647 682.5,585C 685.952,588.734 688.785,592.9 691,597.5C 705.144,629.461 718.477,661.794 731,694.5C 732.84,699.807 732.84,705.14 731,710.5C 721.039,727.416 709.372,743.083 696,757.5C 693.702,761.218 693.035,765.218 694,769.5C 726.142,831.64 773.975,877.474 837.5,907C 848.163,912.499 859.163,917.166 870.5,921C 874.261,921.738 877.928,921.405 881.5,920C 895.926,904.299 909.759,888.132 923,871.5C 926.167,868.333 929.333,865.167 932.5,862C 938.237,861.211 943.903,861.544 949.5,863C 983.783,877.641 1017.45,893.641 1050.5,911C 1057.43,914.249 1060.1,919.749 1058.5,927.5C 1059.98,964.636 1044.98,992.803 1013.5,1012C 986.102,1028.46 956.435,1035.46 924.5,1033C 871.21,1020.35 820.544,1001.02 772.5,975C 734.795,950.982 700.962,922.148 671,888.5C 641.484,854.467 615.151,818.133 592,779.5C 579.823,756.64 572.156,732.307 569,706.5C 564.642,655.066 583.142,614.232 624.5,584C 628.675,583.009 632.675,581.842 636.5,580.5 Z"/></g>
</svg>
